<svg width="20" height="18" viewBox="0 0 20 18" fill="none" xmlns="http://www.w3.org/2000/svg">
<path d="M0 5.85114V14.6756C0 16.0226 1.09388 17.1164 2.44082 17.1164H17.5592C18.9061 17.1164 20 16.0226 20 14.6756V5.85114C20 4.5695 18.9592 3.52869 17.6776 3.52869H14.4286L14.351 3.18991C14.0367 1.83073 12.8408 0.883789 11.4449 0.883789H8.55102C7.15918 0.883789 5.96327 1.83073 5.6449 3.18991L5.56735 3.52869H2.32245C1.04082 3.52869 0 4.57359 0 5.85114ZM5.96735 4.52869C6.2 4.52869 6.4 4.3695 6.45306 4.14093L6.62041 3.4144C6.83265 2.51236 7.62449 1.88379 8.55102 1.88379H11.4449C12.3714 1.88379 13.1633 2.51236 13.3755 3.4144L13.5429 4.14093C13.5959 4.36542 13.7959 4.52869 14.0286 4.52869H17.6735C18.4041 4.52869 18.9959 5.12052 18.9959 5.85114V14.6756C18.9959 15.4715 18.351 16.1164 17.5551 16.1164H2.44082C1.6449 16.1164 1 15.4715 1 14.6756V5.85114C1 5.12052 1.59184 4.52869 2.32245 4.52869H5.96735Z" fill="black"/>
<path d="M3.38423 7.33243C3.75392 7.33243 4.05362 7.03273 4.05362 6.66304C4.05362 6.29335 3.75392 5.99365 3.38423 5.99365C3.01454 5.99365 2.71484 6.29335 2.71484 6.66304C2.71484 7.03273 3.01454 7.33243 3.38423 7.33243Z" fill="black"/>
<path d="M10.0008 14.5489C12.3151 14.5489 14.2008 12.6632 14.2008 10.3489C14.2008 8.03464 12.3151 6.14893 10.0008 6.14893C7.6865 6.14893 5.80078 8.03056 5.80078 10.3489C5.80078 12.6673 7.6865 14.5489 10.0008 14.5489ZM10.0008 7.14893C11.764 7.14893 13.2008 8.58566 13.2008 10.3489C13.2008 12.1122 11.764 13.5489 10.0008 13.5489C8.23752 13.5489 6.80078 12.1122 6.80078 10.3489C6.80078 8.58566 8.23752 7.14893 10.0008 7.14893Z" fill="black"/>
</svg>
