<svg width="20" height="23" viewBox="0 0 20 23" fill="none" xmlns="http://www.w3.org/2000/svg">
<path d="M16.5851 8.27695V5.96708C16.5851 2.67695 13.6312 0 10.0008 0C6.37031 0 3.4164 2.67695 3.4164 5.96708V8.27695C2.01681 8.51811 0.947266 9.73786 0.947266 11.2058V19.2477C0.947266 20.8877 2.28183 22.2222 3.92216 22.2222H16.0794C17.7197 22.2222 19.0543 20.8877 19.0543 19.2473V11.2053C19.0543 9.73786 17.9847 8.51811 16.5851 8.27695ZM4.23945 5.96708C4.23945 3.13045 6.82381 0.823045 10.0008 0.823045C13.1777 0.823045 15.7621 3.13045 15.7621 5.96708V8.23045H4.23945V5.96708ZM18.2312 19.2473C18.2312 20.4337 17.2658 21.3992 16.0794 21.3992H3.92216C2.73574 21.3992 1.77031 20.4337 1.77031 19.2473V11.2053C1.77031 10.0189 2.73574 9.0535 3.92216 9.0535H16.0794C17.2658 9.0535 18.2312 10.0189 18.2312 11.2053V19.2473Z" fill="black"/>
<path d="M10.0006 11.5227C9.09276 11.5227 8.35449 12.261 8.35449 13.1688V15.6379C8.35449 16.5458 9.09276 17.284 10.0006 17.284C10.9084 17.284 11.6467 16.5458 11.6467 15.6379V13.1688C11.6467 12.261 10.9084 11.5227 10.0006 11.5227ZM10.8236 15.6379C10.8236 16.0918 10.4545 16.461 10.0006 16.461C9.54667 16.461 9.17754 16.0918 9.17754 15.6379V13.1688C9.17754 12.7149 9.54667 12.3458 10.0006 12.3458C10.4545 12.3458 10.8236 12.7149 10.8236 13.1688V15.6379Z" fill="black"/>
</svg>
